<svg width="22" height="21" viewBox="0 0 22 21" fill="none" xmlns="http://www.w3.org/2000/svg">
<path d="M12.6582 19.1989C12.4846 19.2424 12.3075 19.281 12.1317 19.3136C11.6723 19.3994 11.3685 19.8434 11.4535 20.3055C11.4955 20.5328 11.624 20.7221 11.7984 20.8457C11.9782 20.9729 12.207 21.0303 12.4402 20.9867C12.6495 20.9477 12.8604 20.9018 13.0674 20.8499C13.5211 20.7364 13.7975 20.2746 13.6843 19.8189C13.5714 19.3629 13.1122 19.0854 12.6582 19.1989Z" fill="black"/>
<path d="M18.9195 7.79541C18.9788 7.97501 19.092 8.12163 19.2351 8.22295C19.4471 8.37302 19.7246 8.42352 19.9894 8.33554C20.4334 8.18742 20.6739 7.70638 20.527 7.26051C20.4601 7.05725 20.3859 6.85336 20.3068 6.65483C20.1331 6.21856 19.6406 6.00615 19.2062 6.18066C18.7723 6.35508 18.5608 6.85008 18.7346 7.28649C18.8011 7.45335 18.8633 7.62463 18.9195 7.79541Z" fill="black"/>
<path d="M15.4095 17.9842C15.2602 18.0833 15.106 18.1792 14.9507 18.269C14.5456 18.5038 14.4068 19.0242 14.6404 19.4312C14.7038 19.5418 14.7883 19.6323 14.8856 19.7015C15.1468 19.8861 15.5015 19.9138 15.7969 19.7428C15.9815 19.6358 16.1651 19.522 16.3429 19.4038C16.7329 19.1449 16.8403 18.6171 16.5825 18.225C16.3247 17.8328 15.7997 17.7251 15.4095 17.9842Z" fill="black"/>
<path d="M21.0536 10.1716C21.0352 9.702 20.6416 9.33651 20.1741 9.35485C19.7072 9.37336 19.3432 9.76901 19.3616 10.2384C19.3686 10.4179 19.3704 10.6 19.3663 10.7793C19.3597 11.0738 19.503 11.3363 19.7258 11.494C19.8585 11.5879 20.0195 11.6447 20.1942 11.6487C20.6615 11.6592 21.0488 11.2867 21.0591 10.8169C21.0638 10.6027 21.062 10.3857 21.0536 10.1716Z" fill="black"/>
<path d="M18.7813 15.7461C18.4066 15.4636 17.8764 15.5403 17.5958 15.9161C17.4883 16.0601 17.3751 16.2022 17.2592 16.3391C16.9563 16.6967 16.9991 17.2338 17.3549 17.5383C17.3752 17.5556 17.3957 17.5715 17.417 17.5864C17.7708 17.837 18.2625 17.7794 18.5485 17.4422C18.6869 17.2788 18.8218 17.109 18.9503 16.9371C19.231 16.5613 19.155 16.0282 18.7813 15.7461Z" fill="black"/>
<path d="M20.0259 12.6707C19.5798 12.5301 19.1046 12.7797 18.9648 13.228C18.9113 13.3993 18.852 13.5714 18.788 13.7399C18.6474 14.1109 18.7821 14.5192 19.0908 14.738C19.1475 14.7779 19.2099 14.8118 19.2776 14.8376C19.7145 15.0051 20.2037 14.7849 20.3702 14.3457C20.4462 14.1453 20.5168 13.9406 20.5805 13.7369C20.7202 13.2885 20.472 12.8112 20.0259 12.6707Z" fill="black"/>
<path d="M8.96424 19.3212C8.20726 19.1846 7.48111 18.9521 6.79253 18.6277C6.78438 18.6234 6.77709 18.6186 6.76853 18.6147C6.60627 18.5379 6.44428 18.4557 6.28727 18.3698C6.28672 18.3692 6.28573 18.3688 6.28487 18.3684C5.99679 18.209 5.71563 18.0326 5.44249 17.8394C1.45963 15.0203 0.501984 9.47077 3.30781 5.46877C3.91793 4.59887 4.65626 3.87313 5.47939 3.29793C5.48953 3.29083 5.49968 3.28378 5.50973 3.27664C8.41031 1.26843 12.3489 1.13309 15.4288 3.19671L14.7673 4.1571C14.5834 4.42441 14.6966 4.61921 15.0185 4.59009L17.8919 4.3316C18.2143 4.30249 18.4071 4.0223 18.3204 3.7095L17.5487 0.916002C17.4624 0.602833 17.2412 0.565347 17.0571 0.832614L16.3941 1.79528C14.1338 0.270694 11.4228 -0.310651 8.73203 0.158192C8.46102 0.205322 8.19381 0.263006 7.93027 0.330153C7.92823 0.330517 7.9266 0.330744 7.92497 0.331108C7.91479 0.33361 7.90446 0.336931 7.89455 0.339706C5.57424 0.938429 3.5498 2.29824 2.10524 4.23839C2.09306 4.2529 2.08052 4.2671 2.06902 4.28288C2.02098 4.34789 1.97331 4.4144 1.92663 4.48091C1.8503 4.58991 1.77505 4.70164 1.70307 4.81337C1.69406 4.82683 1.68717 4.84053 1.6793 4.85413C0.487225 6.71026 -0.0877587 8.85613 0.0108487 11.0408C0.011075 11.0479 0.0106676 11.0552 0.0108487 11.0625C0.0204015 11.2759 0.0372436 11.4923 0.0601071 11.7053C0.0613295 11.719 0.0643629 11.7321 0.0666719 11.7458C0.090305 11.96 0.11996 12.1746 0.15713 12.3893C0.534899 14.5792 1.56299 16.5498 3.10353 18.0831C3.10711 18.0867 3.11082 18.0906 3.11445 18.0943C3.11571 18.0957 3.11712 18.0965 3.11834 18.0978C3.53224 18.508 3.98244 18.8874 4.4672 19.2304C5.73578 20.1286 7.14838 20.7224 8.66544 20.9959C9.12574 21.079 9.56544 20.7711 9.64802 20.3088C9.73056 19.8462 9.42441 19.404 8.96424 19.3212Z" fill="black"/>
<path d="M10.0112 3.70799C9.63255 3.70799 9.32587 4.01643 9.32587 4.39634V11.2542L15.5678 14.4964C15.6683 14.5487 15.7759 14.5733 15.8817 14.5733C16.1296 14.5733 16.3691 14.4377 16.4908 14.201C16.6645 13.8631 16.5331 13.4481 16.1969 13.2736L10.6957 10.4159V4.39634C10.6957 4.01643 10.3894 3.70799 10.0112 3.70799Z" fill="black"/>
</svg>
