<svg width="11" height="12" viewBox="0 0 11 12" fill="none" xmlns="http://www.w3.org/2000/svg">
<path d="M10.8963 0.92389C10.8963 0.749394 10.756 0.607971 10.583 0.607971H0.513916C0.340837 0.607971 0.200562 0.749394 0.200562 0.92389V11.0748C0.200562 11.2493 0.340837 11.3907 0.513916 11.3907H9.01627C9.18927 11.3907 9.32962 11.2493 9.32962 11.0748V10.1486C9.32962 9.97413 9.18927 9.8327 9.01627 9.8327C8.84319 9.8327 8.70291 9.97413 8.70291 10.1486V10.7589H0.82727V8.84628H3.98179C4.15487 8.84628 4.29514 8.70486 4.29514 8.53036C4.29514 8.35587 4.15487 8.21445 3.98179 8.21445H0.82727V1.23981H5.7981V4.3567C5.7981 4.5312 5.93846 4.67262 6.11145 4.67262C6.28453 4.67262 6.42481 4.5312 6.42481 4.3567V1.23981H10.2696L10.2697 7.01034H6.46773V6.2523C6.46773 6.0778 6.32738 5.93638 6.15438 5.93638C5.9813 5.93638 5.84102 6.0778 5.84102 6.2523V7.32625C5.84102 7.50075 5.9813 7.64217 6.15438 7.64217H8.74453V8.2527C8.74453 8.42711 8.88489 8.56862 9.05788 8.56862C9.23096 8.56862 9.37124 8.42711 9.37124 8.2527V7.64217H10.583C10.6661 7.64217 10.7458 7.60885 10.8046 7.54962C10.8633 7.49038 10.8964 7.41001 10.8964 7.32625L10.8963 0.92389Z" fill="black"/>
</svg>
