<svg width="25" height="25" viewBox="0 0 25 25" fill="none" xmlns="http://www.w3.org/2000/svg">
<circle cx="12.5" cy="12.5" r="12.5" fill="#FF7A00"/>
<path d="M16.826 12.4181C16.8258 12.5339 16.8027 12.6486 16.7581 12.7555C16.7134 12.8624 16.6481 12.9595 16.5659 13.0411L11.2433 18.2819C11.0762 18.4463 10.8507 18.5377 10.6162 18.5359C10.3818 18.5341 10.1577 18.4392 9.99324 18.2722C9.82877 18.1051 9.73739 17.8796 9.73921 17.6452C9.74102 17.4107 9.83589 17.1866 10.0029 17.0222L14.7046 12.4016L10.0839 7.70882C9.94104 7.5393 9.86736 7.3221 9.87763 7.10062C9.88791 6.87914 9.98138 6.66969 10.1394 6.51413C10.2974 6.35857 10.5082 6.26836 10.7298 6.26152C10.9515 6.25468 11.1675 6.33172 11.3348 6.47724L16.5755 11.7999C16.7369 11.9651 16.8269 12.1871 16.826 12.4181Z" fill="white"/>
</svg>
