<svg width="21" height="17" viewBox="0 0 21 17" fill="none" xmlns="http://www.w3.org/2000/svg">
<path d="M10.6784 16.8012C10.3967 16.8012 10.1251 16.7062 9.91348 16.5338C9.1141 15.8837 8.3434 15.2727 7.66344 14.7338L7.65997 14.731C5.66642 13.1509 3.94493 11.7863 2.74714 10.4421C1.4082 8.93936 0.784546 7.51455 0.784546 5.95803C0.784546 4.44575 1.34207 3.05057 2.35432 2.02932C3.37864 0.995989 4.78416 0.42688 6.31242 0.42688C7.45465 0.42688 8.50071 0.762757 9.42147 1.4251C9.88615 1.75943 10.3074 2.16861 10.6784 2.64588C11.0497 2.16861 11.4707 1.75943 11.9356 1.4251C12.8563 0.762757 13.9024 0.42688 15.0446 0.42688C16.5727 0.42688 17.9784 0.995989 19.0027 2.02932C20.015 3.05057 20.5723 4.44575 20.5723 5.95803C20.5723 7.51455 19.9488 8.93936 18.6099 10.442C17.4121 11.7863 15.6908 13.1507 13.6975 14.7307C13.0163 15.2705 12.2444 15.8824 11.4432 16.5341C11.2317 16.7062 10.96 16.8012 10.6784 16.8012ZM6.31242 1.505C5.11176 1.505 4.00879 1.95068 3.20639 2.76004C2.39206 3.58162 1.94353 4.71731 1.94353 5.95803C1.94353 7.26714 2.46664 8.43793 3.63952 9.7542C4.77314 11.0265 6.45931 12.363 8.41164 13.9105L8.41526 13.9133C9.09779 14.4544 9.87151 15.0677 10.6768 15.7226C11.4869 15.0664 12.2618 14.4521 12.9457 13.9103C14.8979 12.3627 16.5839 11.0265 17.7175 9.7542C18.8902 8.43793 19.4133 7.26714 19.4133 5.95803C19.4133 4.71731 18.9648 3.58162 18.1505 2.76004C17.3482 1.95068 16.2451 1.505 15.0446 1.505C14.1651 1.505 13.3575 1.76505 12.6445 2.27785C12.0091 2.73505 11.5664 3.313 11.3069 3.7174C11.1735 3.92536 10.9386 4.04949 10.6784 4.04949C10.4183 4.04949 10.1834 3.92536 10.05 3.7174C9.79059 3.313 9.34795 2.73505 8.71237 2.27785C7.99934 1.76505 7.19181 1.505 6.31242 1.505Z" fill="white"/>
</svg>
