<svg width="15" height="14" viewBox="0 0 15 14" fill="none" xmlns="http://www.w3.org/2000/svg">
<path d="M13.4785 2.0309C12.788 1.2474 11.83 0.815918 10.7812 0.815918C9.30608 0.815918 8.37216 1.69692 7.84848 2.43602C7.71261 2.6278 7.59703 2.82011 7.49999 3.00107C7.40294 2.82011 7.28739 2.6278 7.15149 2.43602C6.62781 1.69692 5.6939 0.815918 4.21877 0.815918C3.16993 0.815918 2.21201 1.24743 1.52148 2.03092C0.862827 2.77833 0.500061 3.77932 0.500061 4.84949C0.500061 6.0144 0.954865 7.09789 1.93135 8.25922C2.80408 9.29717 4.0596 10.3671 5.51348 11.606C6.05524 12.0676 6.61548 12.5451 7.21192 13.0669L7.22983 13.0826C7.30716 13.1503 7.40357 13.1841 7.49999 13.1841C7.5964 13.1841 7.69281 13.1503 7.77014 13.0826L7.78805 13.0669C8.38449 12.5451 8.94473 12.0677 9.48657 11.6059C10.9404 10.3671 12.1959 9.2972 13.0686 8.25922C14.0451 7.09786 14.4999 6.0144 14.4999 4.84949C14.4999 3.77932 14.1371 2.77833 13.4785 2.0309ZM8.95447 10.9816C8.48744 11.3796 8.0068 11.7891 7.49999 12.2297C6.9932 11.7892 6.51253 11.3796 6.04542 10.9816C3.20009 8.55693 1.32036 6.95513 1.32036 4.84949C1.32036 3.97915 1.61034 3.17076 2.13689 2.57328C2.66949 1.96902 3.40883 1.63622 4.21877 1.63622C5.34338 1.63622 6.07036 2.32905 6.48215 2.91026C6.85154 3.43154 7.04428 3.95703 7.11001 4.15874C7.165 4.32758 7.32242 4.44185 7.49999 4.44185C7.67755 4.44185 7.83497 4.32758 7.88996 4.15874C7.95569 3.95703 8.14844 3.43154 8.51782 2.91024C8.92961 2.32905 9.65659 1.63622 10.7812 1.63622C11.5911 1.63622 12.3305 1.96902 12.863 2.57328C13.3896 3.17076 13.6796 3.97915 13.6796 4.84949C13.6796 6.95513 11.7999 8.55693 8.95447 10.9816Z" fill="black"/>
</svg>
