<svg width="12" height="18" viewBox="0 0 12 18" fill="none" xmlns="http://www.w3.org/2000/svg">
<path d="M6.68663 17.0905C6.59854 17.2237 6.45022 17.3037 6.29142 17.3037C6.13262 17.3037 5.9843 17.2237 5.89621 17.0905C4.77213 15.3907 3.11645 13.2914 1.9627 11.1564C1.04016 9.44932 0.591692 7.99337 0.591692 6.70542C0.591692 3.53704 3.14859 0.959351 6.29142 0.959351C9.43425 0.959351 11.9911 3.53704 11.9911 6.70542C11.9911 7.99337 11.5427 9.44932 10.6201 11.1564C9.46725 13.2898 7.8084 15.3942 6.68663 17.0905ZM6.29142 1.91703C3.6724 1.91703 1.54165 4.0651 1.54165 6.70542C1.54165 7.82922 1.95225 9.1353 2.79689 10.6983C3.79139 12.5386 5.21056 14.4054 6.29142 15.9747C7.37212 14.4056 8.79139 12.5387 9.78596 10.6983C10.6306 9.1353 11.0412 7.82922 11.0412 6.70542C11.0412 4.0651 8.91045 1.91703 6.29142 1.91703Z" fill="black" fill-opacity="0.5"/>
<path d="M6.29137 9.57846C4.71996 9.57846 3.44151 8.28962 3.44151 6.70543C3.44151 5.12124 4.71996 3.8324 6.29137 3.8324C7.86279 3.8324 9.14124 5.12124 9.14124 6.70543C9.14124 8.28962 7.86279 9.57846 6.29137 9.57846ZM6.29137 4.79008C5.24376 4.79008 4.39146 5.6493 4.39146 6.70543C4.39146 7.76156 5.24376 8.62079 6.29137 8.62079C7.33898 8.62079 8.19128 7.76156 8.19128 6.70543C8.19128 5.6493 7.33898 4.79008 6.29137 4.79008Z" fill="black" fill-opacity="0.5"/>
</svg>
