<svg width="16" height="16" viewBox="0 0 16 16" fill="none" xmlns="http://www.w3.org/2000/svg">
<path d="M10.9085 7.7375C11.583 7.021 12 6.0595 12 5C12 2.7945 10.2055 1 8 1C5.7945 1 4 2.7945 4 5C4 6.0595 4.417 7.021 5.0915 7.7375C3.0925 8.853 2 11.216 2 14.5C2 14.7765 2.224 15 2.5 15H13.5C13.7765 15 14 14.7765 14 14.5C14 11.2155 12.9075 8.853 10.9085 7.7375ZM8 2C9.6545 2 11 3.3455 11 5C11 6.6545 9.6545 8 8 8C6.3455 8 5 6.6545 5 5C5 3.3455 6.3455 2 8 2ZM3.009 14C3.0875 11.883 3.703 9.4035 5.9505 8.4285C6.5505 8.789 7.2505 9 8 9C8.7495 9 9.4495 8.789 10.0495 8.4285C12.2965 9.403 12.9125 11.883 12.9905 14H3.009Z" fill="black"/>
</svg>
