<svg width="14" height="15" viewBox="0 0 14 15" fill="none" xmlns="http://www.w3.org/2000/svg">
<path d="M13.2431 11.4214L11.0438 6.68748C10.9959 6.58415 10.8738 6.53967 10.7713 6.58801C10.6688 6.63641 10.6246 6.75943 10.6727 6.86275L12.8718 11.5966C12.9702 11.8086 12.8792 12.062 12.6689 12.1613L8.45237 14.152C8.24211 14.2513 7.99087 14.1596 7.89231 13.9476L7.10399 12.2502L9.15582 7.25942C9.24449 7.0437 9.23952 6.79852 9.14224 6.58666L8.01991 4.14258L9.47472 4.60657C9.58667 4.64221 9.67935 4.72408 9.72908 4.8314L10.268 5.99092C10.3028 6.0659 10.3766 6.10992 10.4537 6.10992C10.4828 6.10992 10.5124 6.10361 10.5405 6.09036C10.643 6.04196 10.6871 5.91892 10.6391 5.81559L10.1003 4.65626C10.0023 4.44465 9.81922 4.28293 9.59822 4.21258L7.84376 3.65301C8.20547 3.12032 8.5865 2.40801 8.7176 2.08911C9.06139 1.25292 8.78392 0.787885 8.40963 0.631479C8.03532 0.475127 7.51292 0.605944 7.16913 1.44213C7.02128 1.80177 6.88562 2.58502 6.78913 3.25695C6.67432 3.26414 6.5589 3.28838 6.44649 3.33171L3.79206 4.35416C3.5797 4.43597 3.40797 4.60434 3.32091 4.81603L0.481821 11.722C0.396816 11.9287 0.396762 12.1564 0.481684 12.3632C0.56658 12.57 0.726288 12.7311 0.931354 12.8168L1.76173 13.1637C1.8663 13.2074 1.98622 13.1574 2.02953 13.0519C2.07286 12.9465 2.02324 12.8256 1.91868 12.782L1.0883 12.435C0.984389 12.3916 0.903429 12.31 0.860394 12.2051C0.817358 12.1003 0.817386 11.9849 0.860476 11.8802L3.69965 4.97414C3.74378 4.86685 3.8308 4.78151 3.93843 4.74006L6.59287 3.7176C6.63847 3.70003 6.68484 3.6873 6.73143 3.67901C6.7061 3.87307 6.68555 4.04278 6.67069 4.16999C6.58377 4.175 6.49767 4.19663 6.41644 4.23497C6.24894 4.31403 6.12202 4.45413 6.05907 4.62943C5.99609 4.80476 6.00461 4.99428 6.08303 5.16314C6.20061 5.41628 6.45062 5.56509 6.71115 5.56509C6.80933 5.56509 6.90906 5.54393 7.00371 5.49925C7.17121 5.4202 7.29812 5.28007 7.36111 5.10479C7.42406 4.92946 7.41556 4.73994 7.33714 4.57109C7.27872 4.44537 7.1867 4.3424 7.07172 4.27174C7.08697 4.14019 7.11022 3.94618 7.13973 3.72033C7.31711 3.79002 7.46876 3.92585 7.55401 4.11154L8.77026 6.76017C8.81957 6.86752 8.82206 6.99184 8.77711 7.10114L5.93985 14.0025C5.89679 14.1073 5.81583 14.1889 5.71186 14.2323C5.60792 14.2757 5.49343 14.2756 5.38949 14.2322L2.85386 13.1728C2.74935 13.129 2.6294 13.1791 2.58606 13.2845C2.54275 13.3899 2.59235 13.5108 2.69692 13.5545L5.23255 14.6139C5.33624 14.6573 5.44381 14.6778 5.54967 14.6778C5.87589 14.6778 6.18604 14.4829 6.31848 14.1607L6.89144 12.7671L7.52109 14.1229C7.66227 14.4267 7.96237 14.6053 8.27498 14.6053C8.39286 14.6053 8.51259 14.5799 8.6262 14.5262L12.8427 12.5355C13.2576 12.3395 13.4372 11.8398 13.2431 11.4214ZM6.9757 4.96409C6.95002 5.0356 6.89824 5.09275 6.82987 5.12504C6.68883 5.19165 6.5203 5.13011 6.45423 4.98791C6.42223 4.91905 6.41876 4.8417 6.44444 4.77016C6.47013 4.69865 6.52191 4.6415 6.59024 4.60921C6.62833 4.59122 6.66902 4.58219 6.70987 4.58219C6.7423 4.58219 6.77482 4.58789 6.80621 4.59935C6.87715 4.62524 6.93384 4.67744 6.96587 4.74634C6.99792 4.81526 7.00141 4.89255 6.9757 4.96409ZM7.4921 3.4395C7.40023 3.3808 7.30072 3.33521 7.1967 3.30394C7.28911 2.65917 7.41586 1.92152 7.54789 1.6003C7.64088 1.37407 7.89573 0.864078 8.25277 1.01318C8.60978 1.16237 8.43204 1.70465 8.339 1.93085C8.21298 2.23739 7.84141 2.93011 7.4921 3.4395Z" fill="black"/>
</svg>
