<svg width="237" height="271" viewBox="0 0 237 271" fill="none" xmlns="http://www.w3.org/2000/svg">
<path d="M73.3311 237.101C61.5115 229.488 52.2532 218.462 45.566 204.018C38.8739 189.585 35.5303 172.358 35.5303 152.338C35.5303 132.318 38.8739 115.096 45.566 100.657C52.2532 86.2239 61.5115 75.193 73.3311 67.5751C85.1457 59.9621 98.6197 56.1481 113.738 56.1481C128.856 56.1481 142.325 59.9571 154.145 67.5751C165.959 75.193 175.218 86.2188 181.91 100.657C188.597 115.096 191.946 132.323 191.946 152.338C191.946 172.353 188.597 189.585 181.91 204.018C175.218 218.457 165.964 229.483 154.145 237.101C142.325 244.719 128.856 248.528 113.738 248.528C98.6197 248.528 85.1457 244.719 73.3311 237.101ZM139.938 197.513C146.282 187.772 149.456 172.714 149.456 152.343C149.456 131.972 146.282 116.914 139.938 107.173C133.59 97.4325 124.86 92.5621 113.738 92.5621C102.616 92.5621 94.14 97.4376 87.7967 107.173C81.4484 116.919 78.2792 131.978 78.2792 152.343C78.2792 172.708 81.4484 187.772 87.7967 197.513C94.14 207.259 102.785 212.129 113.738 212.129C124.691 212.129 133.59 207.259 139.938 197.513Z" fill="#F56412"/>
<path d="M113.738 45.7723C130.491 45.7723 145.41 49.9927 158.51 58.4334C171.601 66.8741 181.856 79.0934 189.27 95.0861C196.68 111.084 200.392 130.17 200.392 152.343C200.392 174.516 196.68 193.607 189.27 209.6C181.856 225.598 171.601 237.817 158.51 246.252C145.415 254.693 130.491 258.914 113.738 258.914C96.9858 258.914 82.0618 254.693 68.9665 246.252C55.8713 237.817 45.6164 225.598 38.2067 209.6C30.792 193.607 27.0847 174.521 27.0847 152.343C27.0847 130.164 30.792 111.084 38.2067 95.0861C45.6164 79.0934 55.8713 66.8741 68.9665 58.4334C82.0568 49.9977 96.9858 45.7723 113.738 45.7723ZM113.738 218.579C126.061 218.579 135.733 213.185 142.769 202.388C149.795 191.596 153.313 174.913 153.313 152.343C153.313 129.773 149.795 113.09 142.769 102.298C135.738 91.5057 126.061 86.107 113.738 86.107C101.416 86.107 92.0277 91.5057 84.9967 102.298C77.9658 113.095 74.4528 129.778 74.4528 152.343C74.4528 174.907 77.9658 191.596 84.9967 202.388C92.0227 213.185 101.605 218.579 113.738 218.579ZM113.738 44.5483C96.8363 44.5483 81.5585 48.8703 68.3237 57.3974C55.094 65.9244 44.5899 78.4281 37.1154 94.563C29.6609 110.647 25.8788 130.088 25.8788 152.343C25.8788 174.598 29.6609 194.044 37.1154 210.128C44.5899 226.263 55.089 238.767 68.3237 247.294C81.5485 255.821 96.8263 260.143 113.738 260.143C130.651 260.143 145.923 255.821 159.153 247.294C172.383 238.772 182.882 226.268 190.362 210.128C197.816 194.039 201.598 174.598 201.598 152.348C201.598 130.098 197.816 110.662 190.362 94.5681C182.882 78.4332 172.383 65.9295 159.153 57.4024C145.918 48.8754 130.636 44.5534 113.738 44.5534V44.5483ZM113.738 217.355C102.088 217.355 92.7552 212.093 86.0033 201.713C79.1418 191.179 75.6587 174.572 75.6587 152.343C75.6587 130.114 79.1368 113.511 86.0033 102.973C92.7602 92.5925 102.093 87.331 113.738 87.331C125.384 87.331 135.001 92.5925 141.763 102.973C148.624 113.517 152.102 130.124 152.102 152.343C152.102 174.562 148.624 191.174 141.758 201.713C134.996 212.093 125.568 217.355 113.734 217.355H113.738Z" fill="#F56412"/>
<path d="M235.436 0.11106L190.168 50.5856L191.183 51.5313L236.452 1.05678L235.436 0.11106Z" fill="#F67900"/>
<path d="M28.73 239.416L0 269.349L0.98311 270.329L29.7131 240.396L28.73 239.416Z" fill="#F56412"/>
<path d="M176.678 26.3233L166.281 40.0339L167.369 40.8911L177.766 27.1805L176.678 26.3233Z" fill="#F67900"/>
<path d="M49.5373 241.274L38.5299 252.493L39.5024 253.484L50.5098 242.265L49.5373 241.274Z" fill="#F56412"/>
</svg>
